<?xml version="1.0" encoding="iso-8859-1"?>
<!-- Generator: Adobe Illustrator 16.0.0, SVG Export Plug-In . SVG Version: 6.00 Build 0)  -->
<!DOCTYPE svg PUBLIC "-//W3C//DTD SVG 1.1//EN" "http://www.w3.org/Graphics/SVG/1.1/DTD/svg11.dtd">
<svg xmlns="http://www.w3.org/2000/svg" xmlns:xlink="http://www.w3.org/1999/xlink" version="1.1" id="Capa_1" x="0px" y="0px" width="512px" height="512px" viewBox="0 0 611.969 611.969" style="enable-background:new 0 0 611.969 611.969;" xml:space="preserve">
<g>
	<g id="_x36_8">
		<g>
			<path d="M595.737,477.08L352.035,59.97c-21.16-20.515-54.945-19.941-75.424,1.184l-261.6,430.416     c-20.479,21.161-19.94,54.981,1.22,75.46l580.726-14.417C617.436,531.416,616.898,497.631,595.737,477.08z M343.32,481.994     c0,19.797-16.068,35.9-35.901,35.9s-35.9-16.067-35.9-35.9v-10.222c0-19.905,16.067-35.937,35.9-35.937     s35.901,16.031,35.901,35.937V481.994z M343.32,369.055c0,19.869-16.068,35.973-35.901,35.973s-35.9-16.104-35.9-35.973     l-15.494-164.119c0-19.797,31.562-44.508,51.395-44.508s49.673,24.675,49.673,44.508L343.32,369.055z" fill="#333333"/>
		</g>
	</g>
</g>
<g>
</g>
<g>
</g>
<g>
</g>
<g>
</g>
<g>
</g>
<g>
</g>
<g>
</g>
<g>
</g>
<g>
</g>
<g>
</g>
<g>
</g>
<g>
</g>
<g>
</g>
<g>
</g>
<g>
</g>
</svg>
